<svg width="434" height="52" viewBox="0 0 434 52" fill="none" xmlns="http://www.w3.org/2000/svg">
<path d="M0 32.37V35.95L27.08 23.5V19.91L0 32.37Z" fill="white"/>
<path d="M0 48.32V51.91L27.08 39.45V35.87L0 48.32Z" fill="white"/>
<path d="M58.0892 15.96L30.9492 28.44V29.64L58.0892 17.15V15.96Z" fill="white"/>
<path d="M58.0892 0L30.9492 12.49V13.69L58.0892 1.2V0Z" fill="white"/>
<path d="M58.0892 31.91L30.9492 44.4V45.6L58.0892 33.11V31.91Z" fill="white"/>
<path d="M88.1924 31.2699V20.6599C88.2132 20.287 88.1374 19.915 87.9724 19.5799C87.8783 19.467 87.7606 19.3763 87.6275 19.314C87.4944 19.2518 87.3493 19.2197 87.2024 19.2199H86.5124C86.2424 19.2199 86.1024 19.0599 86.1024 18.8199C86.0868 18.7051 86.1115 18.5885 86.1724 18.4899C86.1724 18.4899 86.3324 18.4199 86.5224 18.4199H86.8924C87.6824 18.4199 88.4524 18.4899 89.1924 18.4899H90.8324H93.6624C94.2324 18.4899 94.9524 18.4899 95.8324 18.4899C96.7124 18.4899 97.3124 18.4899 97.6124 18.4899C97.9124 18.4899 97.9024 18.4899 97.9424 18.5399C97.9824 18.5899 98.0124 18.6599 98.0124 18.7999C98.0124 18.9399 98.0124 18.9099 98.0124 19.0299C98.0124 19.4999 97.9524 19.9399 97.9524 20.3699C97.9524 20.7999 97.9524 21.4899 98.0024 22.0099V22.1599C98.0012 22.1998 97.9867 22.2381 97.9614 22.2688C97.9361 22.2996 97.9012 22.3211 97.8624 22.3299C97.6903 22.3594 97.5145 22.3594 97.3424 22.3299C97.0124 22.3299 96.8224 22.0599 96.7524 21.5099C96.7215 21.217 96.6714 20.9263 96.6024 20.6399C96.5658 20.4154 96.4783 20.2022 96.3465 20.0167C96.2148 19.8313 96.0423 19.6784 95.8424 19.5699C94.9941 19.3142 94.1061 19.2159 93.2224 19.2799H92.8224H91.8224L90.3224 19.3299C90.3224 19.5499 90.3024 19.7599 90.2624 19.9599C90.2533 20.1365 90.2533 20.3134 90.2624 20.4899V25.3099H91.9324C92.4741 25.3627 93.0204 25.2802 93.5224 25.0699C93.6945 24.9261 93.8343 24.7476 93.9326 24.5459C94.0308 24.3443 94.0853 24.1241 94.0924 23.8999C94.0924 23.7499 94.0924 23.6299 94.0924 23.5299C94.0924 23.4299 94.0924 23.3299 94.0924 23.2599C94.0924 23.0999 94.0924 23.0099 94.1824 22.9799C94.3283 22.9594 94.4764 22.9594 94.6224 22.9799C94.7519 22.9635 94.8829 22.9635 95.0124 22.9799C95.0824 22.9799 95.1124 23.0299 95.1124 23.0799C95.1124 23.1299 95.1124 23.1699 95.1124 23.2899C95.1124 24.0199 95.0324 24.7999 95.0324 25.6099C95.0324 26.4199 95.0324 27.1999 95.1124 27.9399C95.1124 28.0499 95.1124 28.1099 95.1124 28.1299C95.1124 28.1499 95.1124 28.2199 95.0124 28.2399C94.8828 28.2545 94.752 28.2545 94.6224 28.2399C94.4862 28.2565 94.3485 28.2565 94.2124 28.2399C94.159 28.2399 94.119 28.0699 94.0924 27.7299C94.1107 27.2034 93.9444 26.6869 93.6224 26.2699C93.0996 25.9986 92.5073 25.8906 91.9224 25.9599H90.1724V31.3199C90.1393 31.7065 90.2155 32.0946 90.3924 32.4399C90.4865 32.5559 90.6054 32.6494 90.7404 32.7134C90.8754 32.7775 91.023 32.8104 91.1724 32.8099H91.8424H91.9224C91.9705 32.8083 92.0184 32.8169 92.0629 32.8353C92.1075 32.8536 92.1476 32.8811 92.1807 32.9161C92.2138 32.9511 92.2391 32.9927 92.2549 33.0382C92.2707 33.0836 92.2766 33.132 92.2724 33.1799C92.2874 33.2992 92.259 33.4199 92.1924 33.5199C92.0882 33.5857 91.9647 33.614 91.8424 33.5999H91.5024C90.7024 33.5499 89.9324 33.5199 89.1824 33.5199C88.4324 33.5199 87.6724 33.5799 86.8824 33.5799H86.5124C86.3931 33.595 86.2724 33.5666 86.1724 33.4999C86.1103 33.4054 86.0821 33.2926 86.0924 33.1799C86.0864 33.1316 86.0911 33.0826 86.1063 33.0363C86.1214 32.9901 86.1467 32.9477 86.1801 32.9124C86.2136 32.877 86.2544 32.8495 86.2998 32.8318C86.3451 32.8141 86.3938 32.8066 86.4424 32.8099H86.5124H87.2224C87.367 32.8139 87.5105 32.7833 87.6409 32.7206C87.7714 32.658 87.885 32.5652 87.9724 32.4499C88.1595 32.0866 88.236 31.6763 88.1924 31.2699Z" fill="white"/>
<path d="M109.902 31.27V20.66C109.929 20.2843 109.845 19.9091 109.662 19.58C109.569 19.4653 109.452 19.3726 109.319 19.3086C109.185 19.2447 109.04 19.211 108.892 19.21H108.202C107.922 19.21 107.792 19.05 107.792 18.81C107.776 18.6952 107.801 18.5786 107.862 18.48C107.862 18.48 108.022 18.41 108.212 18.41H108.552C109.962 18.47 111.432 18.51 112.982 18.51C114.322 18.51 115.682 18.51 117.082 18.44L119.292 18.38C119.472 18.38 119.592 18.38 119.632 18.43C119.672 18.48 119.692 18.55 119.692 18.69C119.699 18.7665 119.699 18.8435 119.692 18.92C119.692 19.39 119.692 19.83 119.692 20.26C119.692 20.69 119.692 21.38 119.692 21.9V22.05C119.69 22.0912 119.674 22.1306 119.647 22.1616C119.62 22.1925 119.583 22.2132 119.542 22.22C119.36 22.2488 119.174 22.2488 118.992 22.22C118.702 22.22 118.532 22 118.482 21.57C118.446 21.2328 118.386 20.8986 118.302 20.57C118.262 20.3468 118.171 20.1356 118.038 19.9521C117.905 19.7686 117.732 19.6175 117.532 19.51C116.694 19.2559 115.816 19.1576 114.942 19.22H114.512H113.512L112.022 19.27C112.022 19.49 112.002 19.7 111.962 19.9C111.962 20.1 111.962 20.28 111.962 20.43V25.25H113.722C114.264 25.3027 114.81 25.2203 115.312 25.01C115.617 24.735 115.8 24.3502 115.822 23.94C115.845 23.8176 115.862 23.6941 115.872 23.57C115.872 23.46 115.872 23.37 115.872 23.3C115.872 23.14 115.872 23.05 115.952 23.02C116.101 22.9998 116.253 22.9998 116.402 23.02C116.532 23.0042 116.662 23.0042 116.792 23.02C116.852 23.02 116.892 23.07 116.892 23.12C116.892 23.17 116.892 23.21 116.892 23.33C116.832 24.06 116.812 24.84 116.812 25.65C116.812 26.46 116.812 27.24 116.892 27.98C116.892 28.09 116.892 28.15 116.892 28.17C116.889 28.1964 116.877 28.221 116.859 28.2407C116.841 28.2604 116.818 28.2741 116.792 28.28C116.662 28.2945 116.532 28.2945 116.402 28.28C116.262 28.2959 116.122 28.2959 115.982 28.28C115.982 28.28 115.902 28.1 115.872 27.77C115.885 27.2441 115.72 26.7293 115.402 26.31C114.879 26.0387 114.287 25.9307 113.702 26H111.852V32.78H115.932C116.539 32.8319 117.146 32.6845 117.662 32.36C118.082 31.9398 118.338 31.3827 118.382 30.79C118.382 30.53 118.462 30.23 118.492 29.87C118.494 29.7674 118.518 29.6664 118.561 29.5733C118.604 29.4803 118.666 29.3973 118.744 29.3296C118.821 29.2619 118.911 29.2109 119.009 29.18C119.107 29.1491 119.21 29.1389 119.312 29.15C119.428 29.1425 119.543 29.1704 119.642 29.23C119.712 29.3213 119.744 29.4358 119.732 29.55V32.98C119.732 33.27 119.732 33.44 119.632 33.5C119.532 33.56 119.442 33.6 119.242 33.6H118.712C116.772 33.53 114.762 33.5 112.712 33.5C111.252 33.5 109.852 33.5 108.522 33.6H108.212C108.09 33.614 107.966 33.5858 107.862 33.52C107.8 33.418 107.776 33.298 107.792 33.18C107.786 33.1326 107.791 33.0844 107.805 33.0389C107.82 32.9934 107.844 32.9517 107.877 32.9165C107.909 32.8813 107.948 32.8536 107.993 32.8352C108.037 32.8168 108.084 32.8082 108.132 32.81H108.212H108.922C109.068 32.8076 109.212 32.7732 109.343 32.7093C109.474 32.6453 109.59 32.5534 109.682 32.44C109.867 32.0794 109.943 31.6731 109.902 31.27Z" fill="white"/>
<path d="M147.183 31.2699V20.6599C147.209 20.2855 147.13 19.9112 146.953 19.5799C146.858 19.4626 146.738 19.3683 146.601 19.3042C146.464 19.2401 146.314 19.2079 146.163 19.2099H145.493C145.213 19.2099 145.073 19.0499 145.073 18.8099C145.057 18.6919 145.082 18.5719 145.143 18.4699C145.245 18.4184 145.36 18.3976 145.473 18.4099H145.823C146.643 18.4099 147.443 18.4799 148.223 18.4799C149.003 18.4799 149.733 18.4799 150.533 18.4099H150.903C150.959 18.3832 151.022 18.3744 151.083 18.3849C151.144 18.3954 151.201 18.4246 151.245 18.4685C151.289 18.5124 151.318 18.5687 151.328 18.6299C151.339 18.691 151.33 18.7539 151.303 18.8099C151.303 19.0499 151.173 19.1899 150.903 19.2099H150.193C150.047 19.2123 149.904 19.2467 149.772 19.3107C149.641 19.3746 149.525 19.4665 149.433 19.5799C149.248 19.9189 149.164 20.3045 149.193 20.6899V31.2699C149.162 31.6587 149.246 32.048 149.433 32.3899C149.527 32.5059 149.646 32.5994 149.781 32.6634C149.916 32.7274 150.064 32.7604 150.213 32.7599H150.903H150.973C151.021 32.7578 151.068 32.7663 151.112 32.7848C151.155 32.8032 151.194 32.8312 151.226 32.8666C151.258 32.902 151.281 32.944 151.294 32.9896C151.308 33.0351 151.311 33.083 151.303 33.1299C151.303 33.3199 151.303 33.4299 151.233 33.4799C151.135 33.5408 151.018 33.5655 150.903 33.5499H150.533C149.733 33.5499 148.963 33.4799 148.223 33.4799C147.483 33.4799 146.643 33.4799 145.813 33.5599H145.473C145.362 33.574 145.249 33.5493 145.153 33.4899C145.102 33.3953 145.081 33.287 145.093 33.1799C145.089 33.1311 145.095 33.0819 145.111 33.0356C145.128 32.9894 145.154 32.9473 145.188 32.9121C145.222 32.877 145.264 32.8496 145.31 32.832C145.355 32.8144 145.404 32.8068 145.453 32.8099H145.513H146.213C146.359 32.8075 146.503 32.7731 146.634 32.7092C146.766 32.6452 146.881 32.5533 146.973 32.4399C147.154 32.0783 147.227 31.672 147.183 31.2699Z" fill="white"/>
<path d="M163.263 28.9099V19.9999C163.256 19.8869 163.224 19.7769 163.168 19.6782C163.113 19.5795 163.036 19.4946 162.943 19.4299C162.743 19.2628 162.493 19.1677 162.233 19.1599H161.543C161.424 19.175 161.303 19.1466 161.203 19.0799C161.132 18.9891 161.1 18.8742 161.113 18.7599C161.102 18.6454 161.127 18.5303 161.183 18.4299C161.183 18.4299 161.333 18.3599 161.523 18.3599H162.123H163.213H163.863H164.523C164.639 18.3393 164.757 18.3393 164.873 18.3599C164.943 18.3879 165.004 18.4325 165.053 18.4899C165.053 18.4899 165.243 18.7699 165.613 19.2699C165.983 19.7699 166.363 20.2699 166.783 20.8399L174.563 30.9799L174.413 22.5799C174.407 22.48 174.407 22.3798 174.413 22.2799C174.413 20.2799 174.063 19.2799 173.493 19.2099H172.753C172.653 19.2204 172.552 19.1917 172.473 19.1299C172.408 19.0292 172.38 18.9091 172.393 18.7899C172.382 18.6721 172.406 18.5537 172.463 18.4499C172.581 18.3943 172.713 18.3735 172.843 18.3899H173.093C173.743 18.3899 174.373 18.4699 175.003 18.4699C175.633 18.4699 176.263 18.4699 176.893 18.3899H177.093C177.223 18.3746 177.354 18.3953 177.473 18.4499C177.525 18.5551 177.546 18.6732 177.533 18.7899C177.546 18.9002 177.525 19.0117 177.473 19.1099C177.388 19.1784 177.282 19.214 177.173 19.2099H176.623C176.402 19.1998 176.185 19.263 176.004 19.3896C175.823 19.5163 175.689 19.6992 175.623 19.9099C175.392 20.9429 175.304 22.003 175.363 23.0599V30.8799C175.363 31.6499 175.363 32.3699 175.363 33.0499C175.363 33.1499 175.363 33.2099 175.363 33.2299C175.368 33.3358 175.34 33.4407 175.283 33.5299C175.262 33.5647 175.233 33.5938 175.198 33.6147C175.163 33.6356 175.123 33.6477 175.083 33.6499H174.733H174.453H174.293C174.215 33.6595 174.137 33.6455 174.067 33.6099C173.998 33.5742 173.94 33.5185 173.903 33.4499C173.889 33.4103 173.869 33.3731 173.843 33.3399L173.683 33.1199L172.093 30.9799L164.093 20.5799L164.273 29.3699V29.7799C164.273 31.7099 164.623 32.6899 165.203 32.7799H165.903C165.951 32.7796 165.999 32.7895 166.043 32.809C166.087 32.8286 166.126 32.8573 166.159 32.8932C166.191 32.9291 166.215 32.9715 166.229 33.0175C166.244 33.0635 166.249 33.112 166.243 33.1599C166.258 33.2855 166.23 33.4127 166.163 33.5199C166.051 33.5728 165.926 33.5936 165.803 33.5799H165.573C164.933 33.5299 164.293 33.4999 163.673 33.4999C163.053 33.4999 162.413 33.4999 161.783 33.5799H161.553C161.494 33.6116 161.427 33.6235 161.361 33.6138C161.295 33.6041 161.234 33.5734 161.186 33.5263C161.139 33.4791 161.109 33.418 161.099 33.352C161.089 33.286 161.101 33.2186 161.133 33.1599C161.133 32.9199 161.233 32.7899 161.453 32.7799H162.013C162.233 32.7762 162.447 32.7052 162.626 32.5765C162.804 32.4478 162.939 32.2676 163.013 32.0599C163.242 31.0267 163.327 29.9664 163.263 28.9099Z" fill="white"/>
<path d="M192.952 31.2699V19.2699H190.882C190.328 19.2134 189.772 19.3436 189.302 19.6399C188.923 20.0836 188.686 20.6304 188.622 21.2099C188.622 21.3699 188.622 21.5499 188.552 21.7499C188.482 21.9499 188.342 22.2499 188.052 22.2499C187.873 22.2784 187.69 22.2784 187.512 22.2499C187.473 22.2411 187.438 22.2196 187.413 22.1888C187.387 22.1581 187.373 22.1198 187.372 22.0799V21.9299C187.372 21.4099 187.432 20.8699 187.432 20.2899C187.432 19.8357 187.409 19.3817 187.362 18.9299C187.362 18.7999 187.362 18.7299 187.362 18.6999C187.351 18.6075 187.376 18.5147 187.432 18.4399C187.432 18.4399 187.592 18.4399 187.782 18.4399L189.942 18.4999C191.332 18.4999 192.692 18.5699 194.032 18.5699C195.372 18.5699 196.622 18.5699 198.032 18.4999L200.202 18.4399C200.32 18.4085 200.444 18.4085 200.562 18.4399C200.612 18.5165 200.634 18.6089 200.622 18.6999C200.622 18.6999 200.622 18.8099 200.622 18.9399C200.622 19.4099 200.552 19.8599 200.552 20.2899C200.552 20.7199 200.552 21.4099 200.612 21.9199C200.612 22.0199 200.612 22.0699 200.612 22.0799C200.61 22.1212 200.594 22.1606 200.567 22.1915C200.539 22.2224 200.502 22.2431 200.462 22.2499C200.286 22.2778 200.107 22.2778 199.932 22.2499C199.652 22.2499 199.492 22.0999 199.452 21.7899C199.412 21.4799 199.402 21.3799 199.372 21.2099C199.307 20.6304 199.07 20.0836 198.692 19.6399C198.215 19.3414 197.651 19.2111 197.092 19.2699H195.012V31.2699C194.979 31.662 195.062 32.0551 195.252 32.3999C195.356 32.5182 195.486 32.6119 195.631 32.6741C195.776 32.7364 195.934 32.7657 196.092 32.7599H196.782H196.852C197.102 32.7599 197.222 32.8999 197.222 33.1299C197.233 33.249 197.205 33.3686 197.142 33.4699C197.042 33.5366 196.921 33.565 196.802 33.5499H196.482C195.652 33.4999 194.832 33.4699 194.012 33.4699C193.192 33.4699 192.342 33.4699 191.492 33.5499H191.092C190.979 33.5637 190.865 33.5352 190.772 33.4699C190.712 33.4699 190.692 33.3099 190.692 33.1299C190.692 32.9499 190.822 32.7799 191.072 32.7599H191.132H191.852C192.004 32.7632 192.155 32.7336 192.295 32.6732C192.435 32.6128 192.56 32.523 192.662 32.4099C192.876 32.0702 192.978 31.671 192.952 31.2699Z" fill="white"/>
<path d="M212.593 31.27V20.66C212.625 20.2755 212.545 19.8901 212.363 19.55C212.269 19.434 212.15 19.3405 212.015 19.2765C211.88 19.2124 211.732 19.1795 211.583 19.18H210.893C210.623 19.18 210.483 19.02 210.483 18.78C210.467 18.6652 210.492 18.5486 210.553 18.45C210.553 18.45 210.713 18.38 210.903 18.38H211.253C212.653 18.44 214.133 18.48 215.683 18.48C217.013 18.48 218.383 18.48 219.783 18.41L221.993 18.35C222.173 18.35 222.283 18.35 222.323 18.4C222.351 18.4365 222.372 18.4784 222.384 18.523C222.396 18.5676 222.399 18.6142 222.393 18.66C222.397 18.7366 222.397 18.8134 222.393 18.89C222.393 19.36 222.393 19.8 222.393 20.23C222.393 20.66 222.393 21.35 222.393 21.87V22.02C222.391 22.0612 222.376 22.1006 222.348 22.1316C222.321 22.1625 222.284 22.1831 222.243 22.19C222.061 22.2188 221.875 22.2188 221.693 22.19C221.403 22.19 221.233 21.97 221.183 21.54C221.147 21.2028 221.087 20.8686 221.003 20.54C220.963 20.3168 220.872 20.1056 220.739 19.9221C220.606 19.7386 220.433 19.5875 220.233 19.48C219.395 19.225 218.517 19.1267 217.643 19.19H217.223H216.173L214.683 19.24C214.683 19.46 214.663 19.67 214.623 19.87C214.614 20.0465 214.614 20.2234 214.623 20.4V25.22H216.373C216.918 25.2715 217.467 25.1891 217.973 24.98C218.271 24.6994 218.452 24.3178 218.483 23.91C218.483 23.76 218.483 23.64 218.533 23.54C218.583 23.44 218.533 23.34 218.533 23.27C218.533 23.11 218.533 23.02 218.613 22.99C218.762 22.9705 218.914 22.9705 219.063 22.99C219.193 22.9736 219.324 22.9736 219.453 22.99C219.523 22.99 219.553 23.04 219.553 23.09C219.553 23.14 219.553 23.18 219.553 23.3C219.553 24.03 219.473 24.81 219.473 25.62C219.473 26.43 219.473 27.21 219.553 27.95C219.553 28.06 219.553 28.12 219.553 28.14C219.553 28.16 219.553 28.23 219.453 28.25C219.323 28.2645 219.193 28.2645 219.063 28.25C218.927 28.2665 218.789 28.2665 218.653 28.25C218.6 28.25 218.56 28.08 218.533 27.74C218.549 27.2154 218.386 26.7009 218.073 26.28C217.546 26.0102 216.951 25.9023 216.363 25.97H214.613V32.75H218.683C219.29 32.8019 219.897 32.6545 220.413 32.33C220.833 31.9098 221.089 31.3527 221.133 30.76C221.133 30.5 221.213 30.2 221.253 29.84C221.252 29.7374 221.273 29.6357 221.315 29.542C221.357 29.4482 221.418 29.3644 221.495 29.2962C221.571 29.228 221.662 29.177 221.76 29.1466C221.858 29.1162 221.961 29.1071 222.063 29.12C222.179 29.1097 222.295 29.1378 222.393 29.2C222.463 29.2913 222.495 29.4057 222.483 29.52V32.98C222.483 33.27 222.483 33.44 222.383 33.5C222.283 33.56 222.193 33.6 221.993 33.6H221.463C219.523 33.5266 217.523 33.4933 215.463 33.5C213.993 33.5 212.603 33.5 211.263 33.6H210.953C210.773 33.6 210.653 33.6 210.613 33.52C210.546 33.42 210.518 33.2992 210.533 33.18C210.527 33.1317 210.532 33.0826 210.547 33.0364C210.562 32.9901 210.587 32.9478 210.621 32.9124C210.654 32.8771 210.695 32.8495 210.74 32.8318C210.786 32.8141 210.835 32.8067 210.883 32.81H210.953H211.663C211.809 32.8075 211.953 32.7732 212.084 32.7092C212.215 32.6453 212.331 32.5534 212.423 32.44C212.591 32.0743 212.65 31.6682 212.593 31.27Z" fill="white"/>
<path d="M234.862 31.2699V20.6599C234.894 20.2755 234.814 19.89 234.632 19.5499C234.537 19.4326 234.416 19.3383 234.279 19.2742C234.142 19.2101 233.993 19.1779 233.842 19.1799H233.152C232.882 19.1799 232.742 19.0199 232.742 18.7799C232.726 18.6651 232.751 18.5485 232.812 18.4499C232.812 18.4499 232.972 18.3799 233.162 18.3799H233.532C234.332 18.3799 235.102 18.4499 235.842 18.4499C236.582 18.4499 237.272 18.4499 238.342 18.3799C239.412 18.3099 240.172 18.3199 240.652 18.3199C241.751 18.2129 242.856 18.4731 243.792 19.0599C244.119 19.3989 244.369 19.8056 244.523 20.2513C244.676 20.697 244.731 21.171 244.682 21.6399C244.756 22.6455 244.433 23.6401 243.782 24.4099C242.945 25.1356 241.888 25.5583 240.782 25.6099L243.392 29.6799C243.858 30.4316 244.362 31.1592 244.902 31.8599C245.158 32.1911 245.474 32.4724 245.832 32.6899C246.006 32.7765 246.197 32.821 246.392 32.8199C246.642 32.8199 246.772 32.9299 246.782 33.1099C246.798 33.2505 246.774 33.3928 246.712 33.5199C246.712 33.5899 246.552 33.6199 246.382 33.6199H245.932C245.695 33.6061 245.458 33.6061 245.222 33.6199C245.112 33.6199 244.922 33.6199 244.672 33.6199C244.475 33.6307 244.278 33.6307 244.082 33.6199C243.922 33.6415 243.761 33.6415 243.602 33.6199C243.562 33.6106 243.525 33.5934 243.492 33.5694C243.46 33.5453 243.432 33.5149 243.412 33.4799V33.4199C243.032 32.7899 242.582 32.0599 242.062 31.2499L240.182 28.2499C239.852 27.7299 239.552 27.2499 239.282 26.9199C239.123 26.6775 238.935 26.4558 238.722 26.2599C238.16 26.0096 237.545 25.8997 236.932 25.9399H236.802V31.3399C236.768 31.7277 236.848 32.1169 237.032 32.4599C237.126 32.5759 237.245 32.6694 237.38 32.7334C237.515 32.7975 237.662 32.8304 237.812 32.8299H238.482H238.552C238.6 32.8283 238.648 32.8369 238.692 32.8552C238.737 32.8735 238.777 32.9011 238.81 32.9361C238.843 32.9711 238.868 33.0127 238.884 33.0581C238.9 33.1036 238.906 33.152 238.902 33.1999C238.914 33.321 238.89 33.4431 238.832 33.5499C238.736 33.6093 238.623 33.634 238.512 33.6199H238.152C237.342 33.5699 236.572 33.5399 235.822 33.5399C235.072 33.5399 234.312 33.5399 233.512 33.6099H233.142C233.019 33.6224 232.896 33.5943 232.792 33.5299C232.73 33.4279 232.705 33.3079 232.722 33.1899C232.717 33.142 232.723 33.0936 232.739 33.0481C232.755 33.0027 232.78 32.9611 232.813 32.9261C232.846 32.8911 232.887 32.8635 232.931 32.8452C232.976 32.8269 233.024 32.8183 233.072 32.8199H233.142H233.862C234.008 32.8175 234.151 32.7831 234.283 32.7192C234.414 32.6552 234.53 32.5633 234.622 32.4499C234.815 32.0884 234.899 31.6782 234.862 31.2699ZM236.812 25.1199H237.632H238.242C239.398 25.2249 240.559 24.9773 241.572 24.4099C241.92 24.1143 242.193 23.7394 242.367 23.3166C242.541 22.8938 242.611 22.4354 242.572 21.9799C242.619 21.5614 242.577 21.1376 242.45 20.7361C242.322 20.3347 242.112 19.9646 241.832 19.6499C241.031 19.1254 240.074 18.8923 239.122 18.9899H238.192C237.842 18.9899 237.422 18.9899 236.922 19.0699C236.922 19.3099 236.922 19.5099 236.872 19.6599C236.822 19.8099 236.872 19.9399 236.872 20.0399L236.812 25.1199Z" fill="white"/>
<path d="M258.183 28.9099V19.9999C258.178 19.8876 258.147 19.7779 258.094 19.6791C258.04 19.5804 257.964 19.4951 257.873 19.4299C257.669 19.2627 257.416 19.1678 257.153 19.1599H256.463C256.344 19.1732 256.224 19.145 256.123 19.0799C256.06 18.9857 256.032 18.8726 256.043 18.7599C256.031 18.6464 256.051 18.5318 256.103 18.4299C256.205 18.3683 256.325 18.3436 256.443 18.3599H257.043H258.143H258.783H259.443C259.559 18.3393 259.677 18.3393 259.793 18.3599C259.865 18.3879 259.931 18.4324 259.983 18.4899C259.983 18.4899 260.173 18.7699 260.533 19.2699C260.893 19.7699 261.293 20.2699 261.713 20.8399L269.483 30.9599L269.333 22.5799C269.327 22.48 269.327 22.3798 269.333 22.2799C269.333 20.2799 268.993 19.2799 268.413 19.2099H267.683C267.58 19.22 267.476 19.1915 267.393 19.1299C267.332 19.0277 267.307 18.9079 267.323 18.7899C267.31 18.6732 267.331 18.5551 267.383 18.4499C267.502 18.3953 267.633 18.3746 267.763 18.3899H267.993C268.633 18.3899 269.273 18.4699 269.893 18.4699C270.513 18.4699 271.153 18.4699 271.783 18.3899H272.013C272.143 18.3735 272.274 18.3943 272.393 18.4499C272.45 18.5537 272.474 18.6721 272.463 18.7899C272.474 18.9013 272.449 19.0133 272.393 19.1099C272.312 19.1786 272.209 19.2143 272.103 19.2099H271.553C271.332 19.1998 271.115 19.263 270.934 19.3896C270.753 19.5163 270.619 19.6992 270.553 19.9099C270.312 20.9414 270.221 22.0024 270.283 23.0599V30.8799C270.283 31.6499 270.283 32.3699 270.343 33.0499C270.343 33.1499 270.343 33.2099 270.343 33.2299C270.346 33.3343 270.322 33.4377 270.273 33.5299C270.25 33.5631 270.22 33.591 270.186 33.6117C270.151 33.6324 270.113 33.6455 270.073 33.6499H269.713H269.433H269.183C269.106 33.6569 269.028 33.6418 268.959 33.6064C268.89 33.571 268.832 33.5167 268.793 33.4499C268.798 33.4135 268.798 33.3764 268.793 33.3399L268.633 33.1199L267.093 30.9799L259.003 20.5799L259.193 29.3699V29.7799C259.193 31.7099 259.533 32.6899 260.123 32.7799H260.823C260.872 32.7781 260.921 32.787 260.966 32.8059C261.011 32.8248 261.052 32.8532 261.085 32.8893C261.119 32.9255 261.144 32.9683 261.159 33.015C261.174 33.0617 261.179 33.1112 261.173 33.1599C261.189 33.3048 261.161 33.4512 261.093 33.5799C260.977 33.6337 260.849 33.6544 260.723 33.6399H260.503C259.853 33.5899 259.223 33.5599 258.593 33.5599C257.963 33.5599 257.333 33.5599 256.703 33.6399H256.473C256.343 33.6575 256.211 33.6366 256.093 33.5799C256.037 33.4687 256.016 33.3432 256.033 33.2199C256.033 32.9799 256.143 32.8499 256.353 32.8399H256.923C257.143 32.8376 257.358 32.7672 257.537 32.6383C257.716 32.5094 257.851 32.3284 257.923 32.1199C258.161 31.0677 258.249 29.9868 258.183 28.9099Z" fill="white"/>
<path d="M286.652 27.05C286.092 28.38 285.652 29.44 285.412 30.24C285.203 30.7694 285.065 31.3243 285.002 31.89C284.997 32.0046 285.018 32.1189 285.063 32.2244C285.108 32.3299 285.176 32.4241 285.262 32.5C285.476 32.6602 285.734 32.7509 286.002 32.76H286.632C286.681 32.7582 286.73 32.767 286.775 32.7859C286.82 32.8048 286.861 32.8333 286.894 32.8694C286.927 32.9055 286.952 32.9484 286.968 32.9951C286.983 33.0418 286.987 33.0912 286.982 33.14C286.994 33.261 286.97 33.3831 286.912 33.49C286.823 33.5487 286.717 33.5736 286.612 33.56H286.262C285.612 33.51 284.972 33.48 284.322 33.48C283.672 33.48 283.052 33.48 282.382 33.55L282.092 33.58C281.932 33.58 281.832 33.58 281.792 33.51C281.734 33.4028 281.706 33.2817 281.712 33.16C281.712 32.94 281.802 32.82 281.982 32.8H282.092L282.602 32.73C282.747 32.7173 282.887 32.6731 283.013 32.6006C283.139 32.528 283.248 32.4289 283.332 32.31C283.647 31.86 283.9 31.3687 284.082 30.85L289.202 18.48C289.228 18.3792 289.284 18.2887 289.362 18.22C289.44 18.1947 289.524 18.1947 289.602 18.22H290.602C290.742 18.22 290.822 18.22 290.852 18.32L295.792 31.48C295.902 31.8059 296.068 32.1103 296.282 32.38C296.437 32.5725 296.658 32.7007 296.902 32.74L297.552 32.85H297.712C297.872 32.85 297.962 32.98 297.962 33.21C297.977 33.3292 297.948 33.4499 297.882 33.55C297.785 33.6151 297.668 33.6435 297.552 33.63H297.092C296.292 33.58 295.522 33.55 294.792 33.55C294.062 33.55 293.272 33.55 292.472 33.62H292.102C292.043 33.6403 291.98 33.6437 291.92 33.6299C291.859 33.616 291.804 33.5854 291.76 33.5416C291.716 33.4977 291.686 33.4425 291.672 33.382C291.658 33.3216 291.661 33.2585 291.682 33.2C291.682 32.98 291.772 32.86 291.952 32.84H292.102L292.802 32.75C293.026 32.7329 293.24 32.6454 293.412 32.5C293.485 32.4334 293.543 32.3514 293.581 32.2597C293.619 32.1681 293.637 32.0691 293.632 31.97C293.534 31.4667 293.386 30.9743 293.192 30.5C292.902 29.68 292.462 28.5 291.882 27.09L286.652 27.05ZM286.942 26.22H291.662C291.472 25.63 291.172 24.81 290.772 23.77C290.372 22.73 289.872 21.53 289.292 20.16L286.942 26.22Z" fill="white"/>
<path d="M311.182 31.27V19.27H309.092C308.538 19.2103 307.981 19.3408 307.512 19.64C307.129 20.0821 306.889 20.6292 306.822 21.21C306.822 21.37 306.822 21.55 306.752 21.75C306.682 21.95 306.542 22.25 306.252 22.25C306.076 22.2793 305.897 22.2793 305.722 22.25C305.681 22.2432 305.644 22.2225 305.617 22.1916C305.589 22.1606 305.574 22.1212 305.572 22.08V21.93C305.572 21.41 305.642 20.87 305.642 20.29C305.639 19.8356 305.612 19.3817 305.562 18.93C305.562 18.8 305.562 18.73 305.562 18.7C305.55 18.6089 305.571 18.5166 305.622 18.44C305.736 18.4085 305.857 18.4085 305.972 18.44L308.142 18.5C309.532 18.5 310.892 18.57 312.222 18.57C313.552 18.57 314.822 18.57 316.222 18.5L318.392 18.44C318.592 18.44 318.712 18.44 318.752 18.44C318.803 18.5166 318.824 18.6089 318.812 18.7C318.818 18.7799 318.818 18.8601 318.812 18.94C318.772 19.4067 318.752 19.8567 318.752 20.29C318.752 20.87 318.752 21.41 318.752 21.92C318.752 22.02 318.752 22.07 318.752 22.08C318.75 22.1212 318.734 22.1606 318.707 22.1916C318.68 22.2225 318.643 22.2432 318.602 22.25C318.426 22.2779 318.247 22.2779 318.072 22.25C317.792 22.25 317.632 22.1 317.602 21.79C317.572 21.48 317.552 21.38 317.512 21.21C317.452 20.6292 317.215 20.081 316.832 19.64C316.358 19.3422 315.798 19.2119 315.242 19.27H313.152V31.27C313.119 31.6621 313.202 32.0551 313.392 32.4C313.498 32.5167 313.628 32.6093 313.773 32.6714C313.918 32.7335 314.074 32.7637 314.232 32.76H314.922H314.992C315.242 32.76 315.372 32.9 315.372 33.13C315.377 33.2498 315.345 33.3682 315.282 33.47C315.185 33.5352 315.068 33.5635 314.952 33.55H314.622C313.792 33.5 312.972 33.47 312.162 33.47C311.352 33.47 310.492 33.47 309.642 33.55H309.342C309.229 33.562 309.116 33.5336 309.022 33.47C308.955 33.37 308.927 33.2493 308.942 33.13C308.942 32.9 309.072 32.78 309.322 32.76H309.392H310.102C310.255 32.7621 310.408 32.7321 310.549 32.6718C310.69 32.6115 310.817 32.5223 310.922 32.41C311.12 32.0644 311.211 31.6674 311.182 31.27Z" fill="white"/>
<path d="M331.091 31.27V20.66C331.124 20.2744 331.04 19.8878 330.851 19.55C330.757 19.434 330.638 19.3405 330.503 19.2765C330.368 19.2125 330.221 19.1795 330.071 19.18H329.401C329.121 19.18 328.981 19.02 328.981 18.78C328.965 18.662 328.99 18.542 329.051 18.44C329.153 18.3861 329.268 18.3652 329.381 18.38H329.721C330.541 18.38 331.341 18.45 332.121 18.45C332.901 18.45 333.641 18.45 334.441 18.38H334.811C334.925 18.3652 335.04 18.3861 335.141 18.44C335.194 18.5452 335.215 18.6633 335.201 18.78C335.206 18.8328 335.199 18.8859 335.181 18.9357C335.163 18.9856 335.135 19.031 335.098 19.0689C335.061 19.1068 335.016 19.1364 334.967 19.1555C334.917 19.1747 334.864 19.183 334.811 19.18H334.091C333.945 19.1824 333.802 19.2168 333.67 19.2808C333.539 19.3447 333.423 19.4366 333.331 19.55C333.149 19.8901 333.069 20.2756 333.101 20.66V31.27C333.067 31.6578 333.147 32.047 333.331 32.39C333.426 32.506 333.544 32.5995 333.679 32.6635C333.814 32.7275 333.962 32.7605 334.111 32.76H334.811H334.871C335.091 32.76 335.201 32.89 335.201 33.13C335.215 33.25 335.195 33.3715 335.141 33.48C335.043 33.5409 334.926 33.5656 334.811 33.55H334.441C333.641 33.55 332.871 33.48 332.121 33.48C331.371 33.48 330.541 33.48 329.711 33.56H329.381C329.289 33.5952 329.188 33.6022 329.091 33.58C329.041 33.58 329.021 33.42 329.021 33.23C329.017 33.182 329.023 33.1337 329.039 33.0882C329.055 33.0428 329.08 33.0011 329.113 32.9662C329.146 32.9312 329.186 32.9036 329.231 32.8853C329.275 32.867 329.323 32.8584 329.371 32.86H329.441H330.131C330.279 32.859 330.425 32.8253 330.558 32.7614C330.691 32.6974 330.808 32.6047 330.901 32.49C331.086 32.1116 331.152 31.6865 331.091 31.27Z" fill="white"/>
<path d="M345.732 25.96C345.732 23.1733 346.342 21.15 347.562 19.89C348.782 18.63 350.739 18 353.432 18C355.992 18 357.846 18.6267 358.992 19.88C360.139 21.1333 360.709 23.16 360.702 25.96C360.702 28.7333 360.076 30.7533 358.822 32.02C357.572 33.28 355.592 33.91 352.822 33.91C350.322 33.91 348.512 33.29 347.382 32.03C346.252 30.77 345.732 28.75 345.732 25.96ZM347.932 25.96C347.932 28.52 348.346 30.36 349.172 31.48C349.699 32.0155 350.327 32.4407 351.02 32.731C351.713 33.0213 352.456 33.1708 353.207 33.1708C353.959 33.1708 354.702 33.0213 355.395 32.731C356.088 32.4407 356.716 32.0155 357.242 31.48C358.076 30.36 358.489 28.53 358.482 25.99C358.476 23.45 358.062 21.61 357.242 20.47C356.717 19.9348 356.089 19.5098 355.397 19.2196C354.705 18.9294 353.963 18.78 353.212 18.78C352.462 18.78 351.719 18.9294 351.027 19.2196C350.335 19.5098 349.708 19.9348 349.182 20.47C348.356 21.6033 347.939 23.4233 347.932 25.93V25.96Z" fill="white"/>
<path d="M373.092 28.9099V19.9999C373.087 19.8876 373.056 19.7779 373.003 19.6791C372.949 19.5804 372.873 19.4951 372.782 19.4299C372.581 19.2641 372.332 19.1692 372.072 19.1599H371.372C371.253 19.1717 371.133 19.1435 371.032 19.0799C370.969 18.9857 370.941 18.8726 370.952 18.7599C370.936 18.6451 370.961 18.5285 371.022 18.4299C371.022 18.4299 371.172 18.3599 371.352 18.3599H371.962H373.052H373.692H374.362C374.478 18.3393 374.596 18.3393 374.712 18.3599C374.782 18.3879 374.843 18.4325 374.892 18.4899C374.892 18.4899 375.082 18.7699 375.452 19.2699C375.822 19.7699 376.202 20.2699 376.622 20.8399L384.392 30.9799L384.242 22.5799C384.235 22.48 384.235 22.3798 384.242 22.2799C384.242 20.2799 383.902 19.2799 383.322 19.2099H382.592C382.492 19.2204 382.391 19.1917 382.312 19.1299C382.247 19.0292 382.219 18.9091 382.232 18.7899C382.216 18.6719 382.24 18.5519 382.302 18.4499C382.42 18.3943 382.552 18.3735 382.682 18.3899H382.902C383.552 18.3899 384.182 18.4699 384.812 18.4699C385.442 18.4699 386.062 18.4699 386.702 18.3899H386.932C387.142 18.3899 387.262 18.3899 387.302 18.4499C387.363 18.5519 387.388 18.6719 387.372 18.7899C387.372 18.9599 387.372 19.0599 387.302 19.1099C387.221 19.1786 387.118 19.2143 387.012 19.2099H386.462C386.241 19.1998 386.024 19.263 385.843 19.3896C385.662 19.5163 385.528 19.6992 385.462 19.9099C385.231 20.9429 385.143 22.003 385.202 23.0599V30.8799C385.202 31.6499 385.202 32.3699 385.252 33.0499C385.255 33.1099 385.255 33.17 385.252 33.2299C385.26 33.3347 385.236 33.4395 385.182 33.5299C385.161 33.5647 385.132 33.5938 385.097 33.6147C385.062 33.6356 385.022 33.6477 384.982 33.6499H384.632H384.352H384.092C384.014 33.6595 383.936 33.6455 383.866 33.6099C383.797 33.5742 383.739 33.5185 383.702 33.4499L383.642 33.3399L383.482 33.1199C382.972 32.4299 382.482 31.7299 381.922 31.0299L373.922 20.6499L374.102 29.4399V29.8499C374.102 31.7799 374.452 32.7599 375.032 32.8499H375.732C375.781 32.8481 375.83 32.857 375.875 32.8759C375.92 32.8948 375.961 32.9232 375.994 32.9593C376.028 32.9955 376.053 33.0383 376.068 33.085C376.083 33.1317 376.088 33.1812 376.082 33.2299C376.092 33.3553 376.064 33.4808 376.002 33.5899C375.89 33.6428 375.765 33.6636 375.642 33.6499H375.412C374.772 33.5999 374.132 33.5699 373.512 33.5699C372.892 33.5699 372.252 33.5699 371.612 33.6499H371.392C371.269 33.6665 371.143 33.6456 371.032 33.5899C370.972 33.4802 370.947 33.3543 370.962 33.2299C370.962 32.9899 371.072 32.8599 371.292 32.8499H371.852C372.073 32.8491 372.288 32.7792 372.467 32.6502C372.646 32.5211 372.781 32.3392 372.852 32.1299C373.09 31.0742 373.171 29.9892 373.092 28.9099Z" fill="white"/>
<path d="M401.552 27.05C401.002 28.38 400.552 29.44 400.312 30.24C400.104 30.7693 399.97 31.3244 399.912 31.89C399.905 32.0049 399.924 32.1198 399.969 32.2257C400.015 32.3316 400.084 32.4255 400.172 32.5C400.382 32.6606 400.637 32.7515 400.902 32.76H401.532C401.581 32.7584 401.63 32.7673 401.676 32.7861C401.722 32.8049 401.763 32.8332 401.797 32.8691C401.831 32.905 401.857 32.9477 401.873 32.9944C401.89 33.0411 401.896 33.0907 401.892 33.14C401.897 33.2617 401.87 33.3828 401.812 33.49C401.812 33.49 401.672 33.56 401.512 33.56H401.162C400.512 33.51 399.872 33.48 399.232 33.48C398.592 33.48 397.962 33.48 397.282 33.55H396.942C396.792 33.55 396.682 33.55 396.642 33.48C396.583 33.3731 396.559 33.251 396.572 33.13C396.572 32.91 396.662 32.79 396.842 32.77H396.942L397.452 32.7C397.597 32.6873 397.737 32.6431 397.863 32.5706C397.989 32.498 398.098 32.3989 398.182 32.28C398.505 31.8346 398.758 31.3422 398.932 30.82L404.092 18.48C404.122 18.3811 404.177 18.2917 404.252 18.22C404.33 18.1947 404.414 18.1947 404.492 18.22H405.492C405.632 18.22 405.722 18.22 405.742 18.32L410.692 31.48C410.796 31.8066 410.958 32.1115 411.172 32.38C411.327 32.5725 411.548 32.7007 411.792 32.74L412.442 32.85H412.602C412.772 32.85 412.852 32.98 412.852 33.21C412.867 33.3292 412.838 33.4499 412.772 33.55C412.675 33.6151 412.558 33.6435 412.442 33.63H412.082C411.282 33.58 410.512 33.55 409.782 33.55C409.052 33.55 408.262 33.55 407.462 33.62L407.092 33.58C406.969 33.594 406.846 33.5658 406.742 33.5C406.675 33.3999 406.647 33.2792 406.662 33.16C406.662 32.94 406.752 32.82 406.942 32.8H407.092L407.782 32.71C408.009 32.6911 408.225 32.6039 408.402 32.46C408.472 32.3917 408.528 32.3091 408.564 32.2177C408.6 32.1263 408.616 32.0282 408.612 31.93C408.514 31.4267 408.366 30.9343 408.172 30.46C407.882 29.64 407.442 28.46 406.862 27.05H401.552ZM401.842 26.22H406.562C406.372 25.63 406.082 24.81 405.672 23.77C405.262 22.73 404.782 21.53 404.192 20.16L401.842 26.22Z" fill="white"/>
<path d="M424.423 31.2699V20.6599C424.454 20.2712 424.371 19.8819 424.183 19.5399C424.086 19.4231 423.963 19.3299 423.825 19.2675C423.686 19.2051 423.535 19.1752 423.383 19.1799H422.693C422.413 19.1799 422.273 19.0199 422.273 18.7799C422.26 18.6696 422.281 18.5581 422.333 18.4599C422.333 18.4599 422.493 18.3899 422.673 18.3799H422.963C423.793 18.3799 424.613 18.4599 425.413 18.4599C426.213 18.4599 427.033 18.4599 427.863 18.3799H428.163C428.278 18.3643 428.395 18.3891 428.493 18.4499C428.544 18.5522 428.568 18.6657 428.563 18.7799C428.563 19.0199 428.423 19.1599 428.143 19.1799H427.433C427.285 19.1809 427.14 19.2146 427.007 19.2786C426.874 19.3425 426.756 19.4352 426.663 19.5499C426.481 19.89 426.401 20.2755 426.433 20.6599V31.2099C426.433 31.3799 426.433 31.5699 426.433 31.7899C426.433 32.0099 426.433 32.2699 426.493 32.5599L427.493 32.6299H428.233H428.783C429.799 32.7195 430.822 32.5899 431.783 32.2499C432.016 32.0864 432.211 31.8735 432.353 31.6263C432.494 31.3792 432.58 31.1039 432.603 30.8199L432.753 29.9399C432.781 29.6835 432.828 29.4294 432.893 29.1799C432.893 29.1299 432.953 29.0899 433.033 29.0699C433.216 29.0524 433.4 29.0524 433.583 29.0699C433.693 29.0586 433.803 29.087 433.893 29.1499C433.957 29.2438 433.985 29.3571 433.973 29.4699V32.9799C433.993 33.1498 433.969 33.322 433.903 33.4799C433.81 33.5452 433.696 33.5737 433.583 33.5599H433.143C431.713 33.5599 430.253 33.4999 428.753 33.4999C426.753 33.4999 424.813 33.4999 423.033 33.5999H422.643C422.527 33.6134 422.41 33.5851 422.313 33.5199C422.252 33.418 422.227 33.2979 422.243 33.1799C422.235 33.1322 422.239 33.0833 422.253 33.037C422.267 32.9907 422.291 32.9481 422.323 32.9125C422.356 32.8769 422.397 32.8491 422.442 32.8314C422.487 32.8136 422.535 32.8063 422.583 32.8099H422.663H423.373C423.523 32.8131 423.673 32.7824 423.809 32.7201C423.946 32.6578 424.067 32.5654 424.163 32.4499C424.365 32.0912 424.456 31.6804 424.423 31.2699Z" fill="white"/>
</svg>
